<?xml version="1.0" encoding="UTF-8"?>
<svg id="Layer_1" data-name="Layer 1" xmlns="http://www.w3.org/2000/svg" viewBox="0 0 144 144">
  <defs>
    <style>
      .cls-1 {
        fill: #0cad93;
      }
    </style>
  </defs>
  <path class="cls-1" d="M110.31,12.71c-1.5-2.31-4.16-3.65-6.9-3.37-.97,.1-1.99,.36-3.01,.89-1.35,.7-2.18,1.81-2.68,2.98-.94,2.2-.76,4.72,.4,6.82,24.72,44.92,8.07,94.46-26.13,94.46-34.2,0-50.85-49.53-26.13-94.46,1.16-2.1,1.34-4.62,.4-6.82-.5-1.17-1.32-2.27-2.68-2.98-1.02-.53-2.04-.79-3.01-.89-2.74-.28-5.4,1.06-6.9,3.37-37.82,58.19-10.71,121.99,38.31,121.99,49.02,0,76.13-63.81,38.31-121.99ZM24.49,46.06c.1-.3,.4-.49,.71-.44l4.22,.68c.38,.06,.62,.44,.51,.81-.86,3.07-1.21,6.21-1.42,9.37-.02,.36-.34,.63-.7,.59l-4.68-.44c-.34-.03-.59-.33-.58-.67,.15-3.49,.92-6.77,1.92-9.89Zm-2.03,30.38c-.42-3.22-.78-6.57-.51-10.03,.03-.33,.3-.59,.63-.59l4.83-.09c.38,0,.68,.32,.65,.7-.3,3.17-.02,6.33,.34,9.47,.04,.36-.22,.68-.58,.71l-4.67,.39c-.34,.03-.64-.22-.69-.56Zm10.31,17.87l-4.3,1.89c-.31,.14-.67,0-.83-.3-1.6-3.11-2.76-6.26-3.44-9.47-.07-.31,.11-.63,.41-.74l4.56-1.66c.36-.13,.76,.08,.84,.46,.71,3.11,1.75,6.09,3.08,8.96,.15,.32,0,.71-.32,.85Zm11.28,16.24l-3.26,3.39c-.24,.24-.62,.26-.88,.04-2.66-2.27-4.94-4.74-6.78-7.45-.18-.26-.14-.62,.1-.84l3.59-3.27c.28-.26,.73-.21,.95,.1,1.84,2.6,3.93,4.97,6.26,7.12,.26,.24,.27,.65,.02,.91ZM114.57,46.29l4.22-.68c.31-.05,.61,.14,.71,.44,1,3.12,1.77,6.4,1.92,9.89,.01,.34-.24,.63-.58,.67l-4.68,.44c-.36,.03-.68-.23-.7-.59-.2-3.16-.56-6.3-1.42-9.37-.1-.37,.14-.75,.51-.81Zm-3.71,60.23c-1.84,2.71-4.12,5.18-6.78,7.45-.26,.22-.64,.2-.88-.04l-3.26-3.39c-.25-.26-.24-.67,.02-.91,2.33-2.14,4.42-4.51,6.26-7.12,.22-.31,.67-.36,.95-.1l3.59,3.27c.24,.22,.28,.57,.1,.84Zm8.93-20.09c-.67,3.2-1.84,6.36-3.44,9.47-.16,.3-.52,.43-.83,.3l-4.3-1.89c-.33-.14-.47-.53-.32-.85,1.34-2.87,2.37-5.85,3.08-8.96,.09-.37,.48-.59,.84-.46l4.56,1.66c.3,.11,.47,.42,.41,.74Zm1.05-9.44l-4.67-.39c-.36-.03-.62-.35-.58-.71,.37-3.14,.64-6.3,.34-9.47-.04-.38,.27-.71,.65-.7l4.83,.09c.33,0,.6,.26,.63,.59,.27,3.47-.09,6.81-.51,10.03-.04,.34-.35,.58-.69,.56Z"/>
</svg>